<svg width="30" height="30" viewBox="0 0 30 30" fill="none" xmlns="http://www.w3.org/2000/svg">
<path d="M16.5 15L11.625 10.125C11.3958 9.89583 11.2812 9.60417 11.2812 9.25C11.2812 8.89583 11.3958 8.60417 11.625 8.375C11.8542 8.14583 12.1458 8.03125 12.5 8.03125C12.8542 8.03125 13.1458 8.14583 13.375 8.375L19.125 14.125C19.375 14.375 19.5 14.6667 19.5 15C19.5 15.3333 19.375 15.625 19.125 15.875L13.375 21.625C13.1458 21.8542 12.8542 21.9688 12.5 21.9688C12.1458 21.9688 11.8542 21.8542 11.625 21.625C11.3958 21.3958 11.2812 21.1042 11.2812 20.75C11.2812 20.3958 11.3958 20.1042 11.625 19.875L16.5 15Z" fill="#D9D9D9"/>
</svg>
