<svg width="30" height="30" viewBox="0 0 30 30" fill="none" xmlns="http://www.w3.org/2000/svg">
<path d="M13.5 15L18.375 19.875C18.6042 20.1042 18.7188 20.3958 18.7188 20.75C18.7188 21.1042 18.6042 21.3958 18.375 21.625C18.1458 21.8542 17.8542 21.9688 17.5 21.9688C17.1458 21.9688 16.8542 21.8542 16.625 21.625L10.875 15.875C10.625 15.625 10.5 15.3333 10.5 15C10.5 14.6667 10.625 14.375 10.875 14.125L16.625 8.375C16.8542 8.14583 17.1458 8.03125 17.5 8.03125C17.8542 8.03125 18.1458 8.14583 18.375 8.375C18.6042 8.60417 18.7188 8.89583 18.7188 9.25C18.7188 9.60417 18.6042 9.89583 18.375 10.125L13.5 15Z" fill="#D9D9D9"/>
</svg>
