<svg width="30" height="30" viewBox="0 0 30 30" fill="none" xmlns="http://www.w3.org/2000/svg">
<path d="M6.25 26.25C5.5625 26.25 4.97417 26.0054 4.485 25.5162C3.99583 25.0271 3.75083 24.4383 3.75 23.75V6.25C3.75 5.5625 3.995 4.97417 4.485 4.485C4.975 3.99583 5.56333 3.75083 6.25 3.75H14.4062C14.8229 3.75 15.1354 3.88042 15.3437 4.14125C15.5521 4.40208 15.6562 4.68833 15.6562 5C15.6562 5.31167 15.5471 5.59833 15.3287 5.86C15.1104 6.12167 14.7925 6.25167 14.375 6.25H6.25V23.75H23.75V15.5938C23.75 15.1771 23.8804 14.8646 24.1412 14.6562C24.4021 14.4479 24.6883 14.3438 25 14.3438C25.3117 14.3438 25.5983 14.4479 25.86 14.6562C26.1217 14.8646 26.2517 15.1771 26.25 15.5938V23.75C26.25 24.4375 26.0054 25.0262 25.5163 25.5162C25.0271 26.0062 24.4383 26.2508 23.75 26.25H6.25ZM11.25 17.5V14.4687C11.25 14.1354 11.3125 13.8175 11.4375 13.515C11.5625 13.2125 11.7396 12.9471 11.9687 12.7187L22.7187 1.96875C22.9687 1.71875 23.25 1.53125 23.5625 1.40625C23.875 1.28125 24.1875 1.21875 24.5 1.21875C24.8333 1.21875 25.1513 1.28125 25.4538 1.40625C25.7563 1.53125 26.0321 1.71875 26.2812 1.96875L28.0312 3.75C28.2604 4 28.4375 4.27625 28.5625 4.57875C28.6875 4.88125 28.75 5.18833 28.75 5.5C28.75 5.81167 28.6929 6.11917 28.5788 6.4225C28.4646 6.72583 28.2821 7.00167 28.0312 7.25L17.2812 18C17.0521 18.2292 16.7867 18.4117 16.485 18.5475C16.1833 18.6833 15.8654 18.7508 15.5313 18.75H12.5C12.1458 18.75 11.8492 18.63 11.61 18.39C11.3708 18.15 11.2508 17.8533 11.25 17.5ZM13.75 16.25H15.5L22.75 9L21.875 8.125L20.9687 7.25L13.75 14.4687V16.25Z" fill="#D9D9D9"/>
</svg>
