<svg width="31" height="30" viewBox="0 0 31 30" fill="none" xmlns="http://www.w3.org/2000/svg">
<path d="M18.75 10.0937C18.75 9.19792 18.4533 8.47917 17.86 7.9375C17.2667 7.39583 16.48 7.125 15.5 7.125C14.8958 7.125 14.3492 7.25542 13.86 7.51625C13.3708 7.77708 12.9487 8.15708 12.5937 8.65625C12.2604 9.13542 11.8071 9.41167 11.2337 9.485C10.6604 9.55833 10.1658 9.40708 9.74999 9.03125C9.45833 8.76042 9.29708 8.42708 9.26624 8.03125C9.23541 7.63542 9.33416 7.26042 9.56249 6.90625C10.2292 5.90625 11.0783 5.13042 12.11 4.57875C13.1417 4.02708 14.2717 3.75083 15.5 3.75C17.5208 3.75 19.1617 4.32292 20.4225 5.46875C21.6833 6.61458 22.3133 8.11458 22.3125 9.96875C22.3125 10.9062 22.1146 11.75 21.7187 12.5C21.3229 13.25 20.5937 14.1354 19.5312 15.1562C18.7604 15.8854 18.2396 16.4533 17.9687 16.86C17.6979 17.2667 17.5208 17.73 17.4375 18.25C17.3542 18.75 17.1404 19.1667 16.7962 19.5C16.4521 19.8333 16.0408 20 15.5625 20C15.0842 20 14.6729 19.8387 14.3287 19.5162C13.9846 19.1937 13.8125 18.7925 13.8125 18.3125C13.8125 17.5 13.9896 16.7554 14.3437 16.0787C14.6979 15.4021 15.2917 14.6883 16.125 13.9375C17.1875 13 17.8908 12.2763 18.235 11.7663C18.5792 11.2563 18.7508 10.6987 18.75 10.0937ZM15.5 27.5C14.8125 27.5 14.2242 27.2554 13.735 26.7663C13.2458 26.2771 13.0008 25.6883 13 25C12.9992 24.3117 13.2442 23.7233 13.735 23.235C14.2258 22.7467 14.8142 22.5017 15.5 22.5C16.1858 22.4983 16.7746 22.7433 17.2662 23.235C17.7579 23.7267 18.0025 24.315 18 25C17.9975 25.685 17.7529 26.2738 17.2662 26.7663C16.7796 27.2588 16.1908 27.5033 15.5 27.5Z" fill="#D9D9D9"/>
</svg>
