<svg width="30" height="30" viewBox="0 0 30 30" fill="none" xmlns="http://www.w3.org/2000/svg">
<path d="M24.6875 15.0625C24.4375 15.0625 24.1929 14.9737 23.9538 14.7962C23.7146 14.6187 23.5633 14.395 23.5 14.125C23.3958 13.7292 23.2658 13.3387 23.11 12.9537C22.9542 12.5687 22.7717 12.1988 22.5625 11.8438C22.4167 11.6146 22.3646 11.3596 22.4062 11.0788C22.4479 10.7979 22.5625 10.5633 22.75 10.375C23.0625 10.0833 23.4221 9.95833 23.8288 10C24.2354 10.0417 24.5425 10.2396 24.75 10.5938C25.0208 11.0521 25.2604 11.5208 25.4688 12C25.6771 12.4792 25.8438 12.9792 25.9688 13.5C26.0729 13.9167 25.995 14.2812 25.735 14.5937C25.475 14.9062 25.1258 15.0625 24.6875 15.0625ZM16.3125 25.9375C16.3125 25.6875 16.4012 25.4429 16.5787 25.2037C16.7562 24.9646 16.98 24.8133 17.25 24.75C17.6458 24.6458 18.0367 24.5158 18.4225 24.36C18.8083 24.2042 19.1779 24.0217 19.5312 23.8125C19.7604 23.6667 20.0158 23.6146 20.2975 23.6562C20.5792 23.6979 20.8133 23.8125 21 24C21.2917 24.3125 21.4167 24.6721 21.375 25.0787C21.3333 25.4854 21.1354 25.7925 20.7812 26C20.3021 26.2708 19.8229 26.5054 19.3438 26.7038C18.8646 26.9021 18.375 27.0737 17.875 27.2187C17.4583 27.3229 17.0938 27.25 16.7812 27C16.4688 26.75 16.3125 26.3958 16.3125 25.9375ZM22.75 22.25C22.5625 22.0833 22.4479 21.8542 22.4062 21.5625C22.3646 21.2708 22.4167 21.0104 22.5625 20.7812C22.7708 20.4271 22.9533 20.0571 23.11 19.6713C23.2667 19.2854 23.3967 18.895 23.5 18.5C23.5625 18.2292 23.7083 18.0054 23.9375 17.8287C24.1667 17.6521 24.4167 17.5633 24.6875 17.5625C25.1458 17.5625 25.5 17.7187 25.75 18.0312C26 18.3437 26.0729 18.7083 25.9688 19.125C25.8229 19.625 25.6513 20.1146 25.4538 20.5938C25.2563 21.0729 25.0217 21.5521 24.75 22.0312C24.5417 22.3854 24.2346 22.5833 23.8288 22.625C23.4229 22.6667 23.0633 22.5417 22.75 22.25ZM12.2812 27.1875C9.80208 26.5208 7.77083 25.1875 6.1875 23.1875C4.60417 21.1875 3.8125 18.8958 3.8125 16.3125C3.8125 13.1875 4.90625 10.5313 7.09375 8.34375C9.28125 6.15625 11.9375 5.0625 15.0625 5.0625H15.25L14.1562 3.96875C13.9271 3.73958 13.8125 3.44792 13.8125 3.09375C13.8125 2.73958 13.9375 2.4375 14.1875 2.1875C14.4167 1.95833 14.7083 1.84375 15.0625 1.84375C15.4167 1.84375 15.7187 1.95833 15.9687 2.1875L19.1875 5.4375C19.3125 5.5625 19.4012 5.69792 19.4537 5.84375C19.5062 5.98958 19.5321 6.14583 19.5312 6.3125C19.5304 6.47917 19.5046 6.63542 19.4537 6.78125C19.4029 6.92708 19.3142 7.0625 19.1875 7.1875L15.9375 10.4375C15.7083 10.6667 15.4167 10.7813 15.0625 10.7813C14.7083 10.7813 14.4167 10.6667 14.1875 10.4375C13.9583 10.2083 13.8437 9.91667 13.8437 9.5625C13.8437 9.20833 13.9583 8.91667 14.1875 8.6875L15.3125 7.5625H15.0625C12.625 7.5625 10.5575 8.41125 8.86 10.1087C7.1625 11.8063 6.31333 13.8742 6.3125 16.3125C6.3125 18.3333 6.92708 20.12 8.15625 21.6725C9.38542 23.225 10.9583 24.2508 12.875 24.75C13.1458 24.8125 13.37 24.9583 13.5475 25.1875C13.725 25.4167 13.8133 25.6667 13.8125 25.9375C13.8125 26.375 13.6613 26.7188 13.3588 26.9688C13.0563 27.2188 12.6971 27.2917 12.2812 27.1875Z" fill="#D9D9D9"/>
</svg>
