<svg width="30" height="30" viewBox="0 0 30 30" fill="none" xmlns="http://www.w3.org/2000/svg">
<path d="M7.5 21.25V8.75C7.5 8.39584 7.62 8.09917 7.86 7.86C8.1 7.62084 8.39667 7.50084 8.75 7.5C9.10333 7.49917 9.40042 7.61917 9.64125 7.86C9.88208 8.10084 10.0017 8.3975 10 8.75V21.25C10 21.6042 9.88 21.9013 9.64 22.1413C9.4 22.3813 9.10333 22.5008 8.75 22.5C8.39667 22.4992 8.1 22.3792 7.86 22.14C7.62 21.9008 7.5 21.6042 7.5 21.25ZM14.4062 21.375L23.2188 16.0625C23.4271 15.9375 23.5783 15.7813 23.6725 15.5938C23.7667 15.4063 23.8133 15.2083 23.8125 15C23.8117 14.7917 23.765 14.5938 23.6725 14.4063C23.58 14.2188 23.4288 14.0625 23.2188 13.9375L14.4062 8.625C14.3021 8.5625 14.1929 8.52084 14.0787 8.5C13.9646 8.47917 13.855 8.46875 13.75 8.46875C13.4167 8.46875 13.125 8.58875 12.875 8.82875C12.625 9.06875 12.5 9.36542 12.5 9.71875V20.2813C12.5 20.6354 12.625 20.9325 12.875 21.1725C13.125 21.4125 13.4167 21.5321 13.75 21.5313C13.8542 21.5313 13.9637 21.5208 14.0787 21.5C14.1937 21.4792 14.3029 21.4375 14.4062 21.375ZM15 18.0938V11.9063L20.1562 15L15 18.0938Z" fill="#D9D9D9"/>
</svg>
