<svg width="30" height="32" viewBox="0 0 30 32" fill="none" xmlns="http://www.w3.org/2000/svg">
<path d="M8.75 27.25C8.0625 27.25 7.47417 27.0054 6.985 26.5163C6.49584 26.0271 6.25084 25.4383 6.25 24.75V8.5C5.89584 8.5 5.59917 8.38 5.36 8.14C5.12084 7.9 5.00084 7.60333 5 7.25C4.99917 6.89667 5.11917 6.6 5.36 6.36C5.60084 6.12 5.8975 6 6.25 6H11.25C11.25 5.64583 11.37 5.34917 11.61 5.11C11.85 4.87083 12.1467 4.75083 12.5 4.75H17.5C17.8542 4.75 18.1513 4.87 18.3913 5.11C18.6313 5.35 18.7508 5.64667 18.75 6H23.75C24.1042 6 24.4013 6.12 24.6413 6.36C24.8813 6.6 25.0008 6.89667 25 7.25C24.9992 7.60333 24.8792 7.90042 24.64 8.14125C24.4008 8.38208 24.1042 8.50167 23.75 8.5V24.75C23.75 25.4375 23.5054 26.0263 23.0163 26.5163C22.5271 27.0063 21.9383 27.2508 21.25 27.25H8.75ZM21.25 8.5H8.75V24.75H21.25V8.5ZM12.5 22.25C12.8542 22.25 13.1513 22.13 13.3913 21.89C13.6313 21.65 13.7508 21.3533 13.75 21V12.25C13.75 11.8958 13.63 11.5992 13.39 11.36C13.15 11.1208 12.8533 11.0008 12.5 11C12.1467 10.9992 11.85 11.1192 11.61 11.36C11.37 11.6008 11.25 11.8975 11.25 12.25V21C11.25 21.3542 11.37 21.6512 11.61 21.8912C11.85 22.1312 12.1467 22.2508 12.5 22.25ZM17.5 22.25C17.8542 22.25 18.1513 22.13 18.3913 21.89C18.6313 21.65 18.7508 21.3533 18.75 21V12.25C18.75 11.8958 18.63 11.5992 18.39 11.36C18.15 11.1208 17.8533 11.0008 17.5 11C17.1467 10.9992 16.85 11.1192 16.61 11.36C16.37 11.6008 16.25 11.8975 16.25 12.25V21C16.25 21.3542 16.37 21.6512 16.61 21.8912C16.85 22.1312 17.1467 22.2508 17.5 22.25Z" fill="#D9D9D9"/>
</svg>
