<svg width="240" height="240" viewBox="0 0 240 240" fill="none" xmlns="http://www.w3.org/2000/svg">
<circle cx="120" cy="120" r="120" fill="#839073"/>
<path d="M114.319 88.4316L99.7402 104.262L75.3682 77.7988L75 77.3994L74.6328 77.7988L50.2588 104.262L35.6797 88.4316L75 45.7373L114.319 88.4316Z" fill="#6E6362" stroke="black"/>
<g clip-path="url(#clip0_4_53)">
<path d="M156.25 45L169.697 58.4467L158.447 69.6967L145 56.25V45H156.25Z" fill="black"/>
<path d="M170.152 91.0984L175.777 96.7234L170.473 102.027L161.875 93.4282L156.241 99.0619C156.247 99.1654 156.25 99.27 156.25 99.375C156.25 102.482 153.732 105 150.625 105C147.518 105 145 102.482 145 99.375C145 96.2685 147.518 93.75 150.625 93.75C150.73 93.75 150.834 93.753 150.938 93.7586L156.572 88.125L147.973 79.5267L153.277 74.2233L158.902 79.8483L193.75 45H205V56.25L170.152 91.0984Z" fill="black"/>
<path d="M199.375 105C196.269 105 193.75 102.481 193.75 99.375C193.75 99.27 193.753 99.1654 193.759 99.0619L182.822 88.125L196.723 74.2233L202.027 79.5267L193.428 88.125L199.062 93.7586C199.165 93.753 199.27 93.75 199.375 93.75C202.482 93.75 205 96.2685 205 99.375C205 102.481 202.482 105 199.375 105Z" fill="black"/>
</g>
<g clip-path="url(#clip1_4_53)">
<path fill-rule="evenodd" clip-rule="evenodd" d="M72.5 135H35V172.5H72.5V135ZM46.25 150C48.3211 150 50 148.321 50 146.25C50 144.179 48.3211 142.5 46.25 142.5C44.1789 142.5 42.5 144.179 42.5 146.25C42.5 148.321 44.1789 150 46.25 150ZM65 161.25C65 163.321 63.3211 165 61.25 165C59.1789 165 57.5 163.321 57.5 161.25C57.5 159.179 59.1789 157.5 61.25 157.5C63.3211 157.5 65 159.179 65 161.25Z" fill="black"/>
<path d="M57.5 195V180H80V157.5H95V195H57.5Z" fill="black"/>
</g>
<path d="M204.319 151.568L189.74 135.738L165.368 162.201L165 162.601L164.633 162.201L140.259 135.738L125.68 151.568L165 194.263L204.319 151.568Z" fill="#6E6362" stroke="black"/>
<defs>
<clipPath id="clip0_4_53">
<rect width="60" height="60" fill="white" transform="translate(145 45)"/>
</clipPath>
<clipPath id="clip1_4_53">
<rect width="60" height="60" fill="white" transform="translate(35 135)"/>
</clipPath>
</defs>
</svg>
